<svg width="24" height="24" viewBox="0 0 24 24" fill="none" xmlns="http://www.w3.org/2000/svg">
<circle cx="12" cy="12" r="12" transform="rotate(-90 12 12)" fill="#FF5722"/>
<path d="M11.9987 18.128C11.668 18.128 11.412 18.0373 11.2307 17.856C11.06 17.664 10.9747 17.3973 10.9747 17.056V12.192L11.4067 13.424L7.55069 8C7.41202 7.808 7.34802 7.60533 7.35869 7.392C7.38002 7.168 7.47069 6.98133 7.63069 6.832C7.79069 6.672 8.01469 6.592 8.30269 6.592C8.51602 6.592 8.70802 6.64533 8.87869 6.752C9.06002 6.85867 9.23069 7.024 9.39069 7.248L12.2547 11.312H11.8067L14.6867 7.248C14.8574 7.01333 15.0227 6.848 15.1827 6.752C15.3427 6.64533 15.54 6.592 15.7747 6.592C16.052 6.592 16.2654 6.66667 16.4147 6.816C16.5747 6.95467 16.6547 7.13067 16.6547 7.344C16.6654 7.55733 16.5907 7.78133 16.4307 8.016L12.6067 13.424L13.0227 12.192V17.056C13.0227 17.7707 12.6814 18.128 11.9987 18.128Z" fill="#E8E8E8"/>
<circle cx="12" cy="12" r="9.15" stroke="#E8E8E8" stroke-width="1.7"/>
</svg>
