<svg width="24" height="24" viewBox="0 0 24 24" fill="none" xmlns="http://www.w3.org/2000/svg">
<circle cx="12" cy="12" r="11" stroke="#FF5722" stroke-width="2"/>
<path fill-rule="evenodd" clip-rule="evenodd" d="M16.5922 0.913446C15.1363 0.310389 13.5759 0 12 0V5.56C11.1813 5.56076 10.4369 5.69942 9.76675 5.976C9.10542 6.24267 8.53475 6.632 8.05475 7.144C7.58542 7.64533 7.22275 8.25333 6.96675 8.968C6.71075 9.672 6.58275 10.4667 6.58275 11.352C6.58275 12.5253 6.80675 13.5493 7.25475 14.424C7.70275 15.288 8.33208 15.96 9.14275 16.44C9.96408 16.92 10.9188 17.16 12.0068 17.16C12.8281 17.16 13.5694 17.0267 14.2308 16.76C14.312 16.7265 14.3918 16.6912 14.4701 16.6543C14.7165 17.0499 14.9381 17.4053 14.9381 17.4053C15.0767 17.6293 15.2474 17.7786 15.4501 17.8533C15.6527 17.9386 15.8554 17.9599 16.0581 17.9173C16.2607 17.8853 16.4314 17.7999 16.5701 17.6613C16.7087 17.5333 16.7941 17.3733 16.8261 17.1813C16.8581 16.9893 16.7994 16.7759 16.6501 16.5413L16.0002 15.5136C16.4522 15.0144 16.8011 14.4219 17.0468 13.736C17.2371 13.2045 17.3567 12.6259 17.4055 12L24 12C24 10.4241 23.6896 8.86371 23.0866 7.4078C22.4835 5.95189 21.5996 4.62902 20.4853 3.51472C19.371 2.40042 18.0481 1.5165 16.5922 0.913446ZM15.2584 12H17.4055C17.4223 11.7843 17.4308 11.5629 17.4308 11.336C17.4308 10.1627 17.2068 9.144 16.7588 8.28C16.3108 7.416 15.6814 6.74933 14.8708 6.28C14.0601 5.8 13.1054 5.56 12.0068 5.56C12.0045 5.56 12.0023 5.56 12 5.56V7.32C11.3202 7.32105 10.7358 7.48105 10.2468 7.8C9.75608 8.10933 9.37742 8.568 9.11075 9.176C8.85475 9.77333 8.72675 10.4987 8.72675 11.352C8.72675 12.6213 9.01475 13.6133 9.59075 14.328C10.1667 15.0427 10.9721 15.4 12.0068 15.4C12.7001 15.4 13.2868 15.24 13.7668 14.92C14.2574 14.6 14.6307 14.136 14.8868 13.528C15.0824 13.0818 15.2063 12.5725 15.2584 12ZM15.2584 12H12V7.32C12.0023 7.32 12.0045 7.32 12.0068 7.32C13.0521 7.32 13.8574 7.672 14.4228 8.376C14.9988 9.08 15.2868 10.072 15.2868 11.352C15.2868 11.5763 15.2773 11.7923 15.2584 12Z" fill="#FF5722"/>
</svg>
