<svg width="24" height="24" viewBox="0 0 24 24" fill="none" xmlns="http://www.w3.org/2000/svg">
<circle cx="12" cy="12" r="11" stroke="#FF5722" stroke-width="2"/>
<path d="M9.69909 17C9.42176 17 9.20309 16.9254 9.04309 16.776C8.89376 16.616 8.81909 16.4027 8.81909 16.136C8.81909 15.8587 8.89376 15.6507 9.04309 15.512C9.20309 15.3734 9.42176 15.304 9.69909 15.304H11.4911V7.44804H12.4831L10.1311 8.87204C9.92843 8.98938 9.73643 9.03738 9.55509 9.01604C9.38443 8.98404 9.23509 8.90937 9.10709 8.79204C8.98976 8.66404 8.90976 8.51471 8.86709 8.34404C8.82443 8.17337 8.83509 8.00271 8.89909 7.83204C8.97376 7.65071 9.11243 7.50137 9.31509 7.38404L11.5231 6.05604C11.7364 5.92804 11.9498 5.82137 12.1631 5.73604C12.3764 5.64004 12.5738 5.59204 12.7551 5.59204C12.9791 5.59204 13.1658 5.65604 13.3151 5.78404C13.4644 5.90137 13.5391 6.09871 13.5391 6.37604V15.304H15.1711C15.4484 15.304 15.6618 15.3734 15.8111 15.512C15.9711 15.6507 16.0511 15.8587 16.0511 16.136C16.0511 16.4134 15.9711 16.6267 15.8111 16.776C15.6618 16.9254 15.4484 17 15.1711 17H9.69909Z" fill="#FF5722"/>
</svg>
