<svg width="24" height="24" viewBox="0 0 24 24" fill="none" xmlns="http://www.w3.org/2000/svg">
<path d="M12 0C13.9309 0 15.8278 0.508268 17.5 1.47372L12 11V0Z" fill="#FF5722"/>
<circle cx="12" cy="12" r="11" stroke="#FF5722" stroke-width="2"/>
<path d="M7.24673 18.128C6.94806 18.128 6.71873 18.0427 6.55873 17.872C6.39873 17.7014 6.31873 17.4667 6.31873 17.168V7.55204C6.31873 7.24271 6.40406 7.00804 6.57473 6.84804C6.74539 6.67737 6.98006 6.59204 7.27873 6.59204C7.54539 6.59204 7.75339 6.64537 7.90273 6.75204C8.06273 6.84804 8.20673 7.01871 8.33473 7.26404L12.2867 14.576H11.7747L15.7267 7.26404C15.8547 7.01871 15.9934 6.84804 16.1427 6.75204C16.2921 6.64537 16.5001 6.59204 16.7667 6.59204C17.0654 6.59204 17.2947 6.67737 17.4547 6.84804C17.6147 7.00804 17.6947 7.24271 17.6947 7.55204V17.168C17.6947 17.4667 17.6147 17.7014 17.4547 17.872C17.3054 18.0427 17.0761 18.128 16.7667 18.128C16.4681 18.128 16.2387 18.0427 16.0787 17.872C15.9187 17.7014 15.8387 17.4667 15.8387 17.168V9.76004H16.1907L12.8307 15.888C12.7241 16.0694 12.6121 16.2027 12.4947 16.288C12.3774 16.3734 12.2174 16.416 12.0147 16.416C11.8121 16.416 11.6467 16.3734 11.5187 16.288C11.3907 16.192 11.2787 16.0587 11.1827 15.888L7.79073 9.74404H8.17473V17.168C8.17473 17.4667 8.09473 17.7014 7.93473 17.872C7.78539 18.0427 7.55606 18.128 7.24673 18.128Z" fill="#FF5722"/>
</svg>
