<svg width="24" height="24" viewBox="0 0 24 24" fill="none" xmlns="http://www.w3.org/2000/svg">
<circle cx="12" cy="12" r="11" stroke="#FF5722" stroke-width="2"/>
<path fill-rule="evenodd" clip-rule="evenodd" d="M16.5923 0.913446C15.1363 0.310389 13.5759 0 12.0001 0V11.424H9.09256V7.648C9.09256 7.30667 9.00189 7.04533 8.82056 6.864C8.64989 6.68267 8.39922 6.592 8.06856 6.592C7.73789 6.592 7.48189 6.68267 7.30056 6.864C7.12989 7.04533 7.04456 7.30667 7.04456 7.648V17.072C7.04456 17.4027 7.12989 17.664 7.30056 17.856C7.48189 18.0373 7.73789 18.128 8.06856 18.128C8.40989 18.128 8.66589 18.0373 8.83656 17.856C9.00722 17.664 9.09256 17.4027 9.09256 17.072V13.136H12.0001L12.0001 24C13.5759 24 15.1363 23.6896 16.5923 23.0866C18.0482 22.4835 19.371 21.5996 20.4853 20.4853C21.5996 19.371 22.4836 18.0481 23.0866 16.5922C23.6897 15.1363 24.0001 13.5759 24.0001 12C24.0001 10.4241 23.6897 8.86371 23.0866 7.4078C22.4836 5.95189 21.5996 4.62902 20.4853 3.51472C19.371 2.40042 18.0482 1.5165 16.5923 0.913446ZM12.0001 13.136H14.9006V17.072C14.9006 17.4027 14.9859 17.664 15.1566 17.856C15.3379 18.0373 15.5939 18.128 15.9246 18.128C16.2552 18.128 16.5059 18.0373 16.6766 17.856C16.8579 17.664 16.9486 17.4027 16.9486 17.072V7.648C16.9486 7.30667 16.8579 7.04533 16.6766 6.864C16.5059 6.68267 16.2552 6.592 15.9246 6.592C15.5939 6.592 15.3379 6.68267 15.1566 6.864C14.9859 7.04533 14.9006 7.30667 14.9006 7.648V11.424H12.0001V12V13.136Z" fill="#FF5722"/>
</svg>
